<svg width="20" height="22" viewBox="0 0 20 22" fill="none" xmlns="http://www.w3.org/2000/svg">
<path d="M12.5513 15.5505V16.5505C12.5513 17.3461 12.2353 18.1092 11.6726 18.6718C11.11 19.2344 10.347 19.5505 9.55131 19.5505C8.75566 19.5505 7.99259 19.2344 7.42998 18.6718C6.86737 18.1092 6.5513 17.3461 6.5513 16.5505V15.5505M12.5513 15.5505H6.5513M12.5513 15.5505H16.1413C16.5243 15.5505 16.7163 15.5505 16.8713 15.4985C17.0171 15.4491 17.1496 15.3668 17.2583 15.2578C17.3671 15.1489 17.4492 15.0164 17.4984 14.8705C17.5514 14.7145 17.5514 14.5225 17.5514 14.1365C17.5514 13.9675 17.5514 13.8835 17.5374 13.8025C17.5127 13.651 17.4535 13.5073 17.3643 13.3825C17.3163 13.3155 17.2564 13.2555 17.1373 13.1365L16.7473 12.7465C16.6851 12.6842 16.6358 12.6103 16.6022 12.529C16.5686 12.4476 16.5513 12.3605 16.5513 12.2725V8.55045C16.5513 7.63119 16.3703 6.72094 16.0185 5.87165C15.6667 5.02237 15.1511 4.25069 14.5011 3.60068C13.8511 2.95066 13.0794 2.43505 12.2301 2.08326C11.3808 1.73148 10.4706 1.55042 9.55131 1.55042C8.63205 1.55042 7.7218 1.73148 6.87251 2.08326C6.02323 2.43505 5.25155 2.95066 4.60154 3.60068C3.95152 4.25069 3.43591 5.02237 3.08412 5.87165C2.73234 6.72094 2.55127 7.63119 2.55127 8.55045V12.2725C2.55134 12.3605 2.53406 12.4476 2.50043 12.529C2.4668 12.6103 2.41747 12.6842 2.35527 12.7465L1.96527 13.1365C1.84527 13.2565 1.78627 13.3155 1.73927 13.3815C1.6493 13.5065 1.58941 13.6505 1.56427 13.8025C1.55127 13.8825 1.55127 13.9675 1.55127 14.1365C1.55127 14.5225 1.55127 14.7145 1.60327 14.8705C1.6526 15.0166 1.73505 15.1493 1.84416 15.2582C1.95328 15.3672 2.08611 15.4494 2.23227 15.4985C2.38727 15.5505 2.57827 15.5505 2.96128 15.5505H6.5513" stroke="#050F07" stroke-width="3.10079" stroke-linecap="round" stroke-linejoin="round"/>
</svg>
