<svg width="123" height="24" viewBox="0 0 123 24" fill="none" xmlns="http://www.w3.org/2000/svg">
<path d="M97.7148 12.5806V24H103.182V12.6093C103.182 10.047 104.562 7.68108 106.797 6.4098C109.003 5.15542 111.711 5.15542 113.917 6.4098C116.153 7.68108 117.533 10.047 117.533 12.6093V24H123V12.5806C123 8.3181 120.831 4.34555 117.237 2.02596C113.052 -0.675319 107.662 -0.675319 103.477 2.02596C99.8837 4.34555 97.7148 8.3181 97.7148 12.5806Z" fill="#050F07"/>
<path d="M107.966 11.7595C107.966 10.6327 108.883 9.71937 110.016 9.71937C111.148 9.71937 112.066 10.6327 112.066 11.7595V14.4796H113.433C114.565 14.4796 115.483 15.393 115.483 16.5197C115.483 17.6464 114.565 18.5598 113.433 18.5598H110.016C108.883 18.5598 107.966 17.6464 107.966 16.5197V11.7595Z" fill="#050F07"/>
<path d="M8.86756 23.7506C7.20624 23.7506 5.71753 23.4822 4.40142 22.9455C3.08531 22.4087 2.0281 21.6143 1.22981 20.5623C0.453087 19.5103 0.0431511 18.2436 0 16.7622H5.89013C5.97643 17.5995 6.2677 18.2436 6.76394 18.6945C7.26018 19.1239 7.90745 19.3386 8.70574 19.3386C9.52561 19.3386 10.1729 19.1561 10.6475 18.7911C11.1222 18.4046 11.3595 17.8786 11.3595 17.2131C11.3595 16.6549 11.1654 16.1933 10.777 15.8283C10.4102 15.4633 9.94634 15.1627 9.38537 14.9265C8.84598 14.6904 8.06926 14.422 7.05521 14.1214C5.58807 13.6706 4.39063 13.2197 3.46288 12.7688C2.53513 12.318 1.73683 11.6524 1.06799 10.7722C0.399148 9.89191 0.0647267 8.74328 0.0647267 7.32628C0.0647267 5.22225 0.830659 3.57982 2.36252 2.39899C3.89439 1.19669 5.89013 0.595539 8.34975 0.595539C10.8525 0.595539 12.8698 1.19669 14.4017 2.39899C15.9336 3.57982 16.7534 5.23299 16.8613 7.35848H10.8741C10.8309 6.62852 10.5612 6.05957 10.065 5.65165C9.56877 5.22225 8.93229 5.00756 8.15556 5.00756C7.48672 5.00756 6.94733 5.19005 6.5374 5.55503C6.12746 5.89855 5.92249 6.40308 5.92249 7.06864C5.92249 7.79861 6.2677 8.36756 6.95812 8.77548C7.64854 9.18341 8.72732 9.62354 10.1945 10.0959C11.6616 10.5897 12.8483 11.062 13.7544 11.5129C14.6822 11.9637 15.4805 12.6186 16.1493 13.4773C16.8182 14.3361 17.1526 15.4418 17.1526 16.7944C17.1526 18.0826 16.8182 19.2527 16.1493 20.3047C15.502 21.3567 14.5527 22.194 13.3013 22.8166C12.05 23.4393 10.572 23.7506 8.86756 23.7506Z" fill="#050F07"/>
<path d="M26.0924 0.917584V23.5251H20.5583V0.917584H26.0924Z" fill="#050F07"/>
<path d="M38.3233 23.7506C36.6619 23.7506 35.1732 23.4822 33.8571 22.9455C32.541 22.4087 31.4838 21.6143 30.6855 20.5623C29.9088 19.5103 29.4989 18.2436 29.4557 16.7622H35.3458C35.4321 17.5995 35.7234 18.2436 36.2197 18.6945C36.7159 19.1239 37.3632 19.3386 38.1614 19.3386C38.9813 19.3386 39.6286 19.1561 40.1032 18.7911C40.5779 18.4046 40.8152 17.8786 40.8152 17.2131C40.8152 16.6549 40.6211 16.1933 40.2327 15.8283C39.8659 15.4633 39.402 15.1627 38.8411 14.9265C38.3017 14.6904 37.525 14.422 36.5109 14.1214C35.0438 13.6706 33.8463 13.2197 32.9186 12.7688C31.9908 12.318 31.1925 11.6524 30.5237 10.7722C29.8549 9.89191 29.5204 8.74328 29.5204 7.32628C29.5204 5.22225 30.2864 3.57982 31.8182 2.39899C33.3501 1.19669 35.3458 0.595539 37.8055 0.595539C40.3082 0.595539 42.3255 1.19669 43.8574 2.39899C45.3893 3.57982 46.2091 5.23299 46.317 7.35848H40.3298C40.2866 6.62852 40.0169 6.05957 39.5207 5.65165C39.0245 5.22225 38.388 5.00756 37.6113 5.00756C36.9424 5.00756 36.403 5.19005 35.9931 5.55503C35.5832 5.89855 35.3782 6.40308 35.3782 7.06864C35.3782 7.79861 35.7234 8.36756 36.4138 8.77548C37.1042 9.18341 38.183 9.62354 39.6502 10.0959C41.1173 10.5897 42.304 11.062 43.2101 11.5129C44.1379 11.9637 44.9362 12.6186 45.605 13.4773C46.2739 14.3361 46.6083 15.4418 46.6083 16.7944C46.6083 18.0826 46.2739 19.2527 45.605 20.3047C44.9578 21.3567 44.0084 22.194 42.757 22.8166C41.5057 23.4393 40.0277 23.7506 38.3233 23.7506Z" fill="#050F07"/>
<path d="M65.0953 8.06698C64.6854 7.31554 64.0921 6.7466 63.3154 6.36014C62.5602 5.95222 61.6648 5.74826 60.6292 5.74826C58.8384 5.74826 57.4037 6.33868 56.3249 7.51951C55.2461 8.67887 54.7067 10.2354 54.7067 12.1892C54.7067 14.2717 55.2677 15.9034 56.3896 17.0842C57.5331 18.2436 59.0973 18.8233 61.0823 18.8233C62.4415 18.8233 63.5851 18.4798 64.5128 17.7927C65.4621 17.1057 66.1525 16.1181 66.5841 14.8299H59.5612V10.7722H71.6004V15.8927C71.1904 17.2667 70.4892 18.5442 69.4968 19.725C68.5259 20.9058 67.2853 21.8612 65.775 22.5912C64.2647 23.3212 62.5602 23.6862 60.6616 23.6862C58.4177 23.6862 56.4112 23.2031 54.642 22.237C52.8944 21.2494 51.5243 19.886 50.5318 18.147C49.5609 16.4079 49.0755 14.422 49.0755 12.1892C49.0755 9.95631 49.5609 7.97037 50.5318 6.23133C51.5243 4.47081 52.8944 3.10749 54.642 2.14135C56.3896 1.15375 58.3853 0.659948 60.6292 0.659948C63.3477 0.659948 65.6347 1.31477 67.4902 2.62442C69.3673 3.93407 70.6079 5.74826 71.212 8.06698H65.0953Z" fill="#050F07"/>
<path d="M94.3427 0.917584V23.5251H88.8086V14.218H80.1999V23.5251H74.6658V0.917584H80.1999V9.77382H88.8086V0.917584H94.3427Z" fill="#050F07"/>
</svg>
