<svg width="19" height="20" viewBox="0 0 19 20" fill="none" xmlns="http://www.w3.org/2000/svg">
<path d="M2.15876 2.65874C1.40446 2.65874 0.792969 3.27023 0.792969 4.02453V6.69921H18.1499V4.02453C18.1499 3.27023 17.5384 2.65874 16.7841 2.65874H15.4752V1.52058C15.4752 0.766272 14.8638 0.154785 14.1095 0.154785H12.516C11.7617 0.154785 11.1502 0.766272 11.1502 1.52058V2.65874H7.73575V1.52058C7.73575 0.766272 7.12426 0.154785 6.36996 0.154785H4.66272C3.90841 0.154785 3.29692 0.766272 3.29692 1.52058V2.65874H2.15876Z" fill="white"/>
<path fill-rule="evenodd" clip-rule="evenodd" d="M2.15876 19.845C1.40445 19.845 0.792969 19.2335 0.792969 18.4792V8.46336H18.2068V18.4792C18.2068 19.2335 17.5953 19.845 16.841 19.845H2.15876ZM4.09364 16.9996C3.8422 16.9996 3.63837 16.7957 3.63837 16.5443V11.2519H15.3045V16.5443C15.3045 16.7957 15.1007 16.9996 14.8493 16.9996H4.09364Z" fill="white"/>
</svg>
