<svg width="17" height="18" viewBox="0 0 17 18" fill="none" xmlns="http://www.w3.org/2000/svg">
<path fill-rule="evenodd" clip-rule="evenodd" d="M7.19666 0.38623H9.82896C10.3412 0.38623 10.8005 0.701686 10.9844 1.17976L11.744 3.15473L13.9474 2.68788C14.4485 2.58171 14.9632 2.79512 15.2422 3.22469L16.6758 5.43233C16.9548 5.8619 16.9404 6.41892 16.6396 6.83351L15.0395 9.03883L16.6396 11.2442C16.9404 11.6587 16.9548 12.2158 16.6758 12.6453L15.2422 14.853C14.9632 15.2825 14.4485 15.4959 13.9474 15.3898L11.7164 14.9171L10.9844 16.8203C10.8005 17.2984 10.3412 17.6138 9.82896 17.6138H7.19666C6.68445 17.6138 6.22513 17.2984 6.04126 16.8203L5.30733 14.9121L3.05266 15.3898C2.55157 15.496 2.03685 15.2826 1.75788 14.853L0.324224 12.6454C0.045253 12.2158 0.0596567 11.6588 0.360457 11.2442L1.96051 9.03884L0.360457 6.83353C0.0596574 6.41894 0.0452532 5.86192 0.324224 5.43234L1.75788 3.22471C2.03685 2.79513 2.55157 2.58173 3.05266 2.68789L5.27973 3.15975L6.04126 1.17976C6.22513 0.701687 6.68445 0.38623 7.19666 0.38623ZM8.51281 12.3527C10.3644 12.3527 11.8655 10.8517 11.8655 9.00003C11.8655 7.1484 10.3644 5.64736 8.51281 5.64736C6.66118 5.64736 5.16013 7.1484 5.16013 9.00003C5.16013 10.8517 6.66118 12.3527 8.51281 12.3527Z" fill="white"/>
</svg>
