<svg width="23" height="20" viewBox="0 0 23 20" fill="none" xmlns="http://www.w3.org/2000/svg">
<path d="M11.1446 12.6267V12.6267C11.1446 13.4345 10.8146 14.2073 10.231 14.7659L7.55763 17.3247C6.94609 17.91 6.13223 18.2367 5.2857 18.2367H4.90758C3.30177 18.2367 2 16.9349 2 15.3291V15.3291C2 14.5542 2.30933 13.8114 2.85932 13.2655L5.35909 10.7844C5.99081 10.1574 6.84479 9.8055 7.73485 9.8055H11.1446H14.7257C15.5522 9.8055 16.3499 9.502 16.9674 8.95262L19.4658 6.72973C20.0721 6.19033 20.4189 5.41752 20.4189 4.60602V4.60602C20.4189 3.0361 19.1463 1.76343 17.5764 1.76343H17.1241C16.2829 1.76343 15.4735 2.08523 14.8619 2.66286L11.899 5.4611C11.4175 5.91587 11.1446 6.54895 11.1446 7.21129V7.21129" stroke="white" stroke-width="3.24277"/>
</svg>
