<svg width="21" height="20" viewBox="0 0 21 20" fill="none" xmlns="http://www.w3.org/2000/svg">
<path d="M14.0559 17.9084H2.57492C2.29084 17.9084 2.06055 17.6782 2.06055 17.3941V2.60592C2.06055 2.32184 2.29084 2.09155 2.57492 2.09155H6.5026M14.0559 17.9084V2.09155M14.0559 17.9084H18.4246C18.7087 17.9084 18.939 17.6782 18.939 17.3941V2.60592C18.939 2.32184 18.7087 2.09155 18.4246 2.09155H14.0559M14.0559 2.09155H7.74991M7.74991 2.09155H6.5026M7.74991 2.09155V6.0214C7.74991 6.30547 7.51962 6.53577 7.23554 6.53577H7.01697C6.73289 6.53577 6.5026 6.30547 6.5026 6.0214V2.09155" stroke="white" stroke-width="3.21482"/>
</svg>
