<svg width="21" height="20" viewBox="0 0 21 20" fill="none" xmlns="http://www.w3.org/2000/svg">
<path d="M18.322 1.70386H13.3442C13.0824 1.70386 12.8702 1.91611 12.8702 2.17793V7.15565C12.8702 7.41747 13.0824 7.62972 13.3442 7.62972H18.322C18.5838 7.62972 18.796 7.41747 18.796 7.15565V2.17793C18.796 1.91611 18.5838 1.70386 18.322 1.70386Z" stroke="white" stroke-width="2.96293"/>
<path d="M18.796 17.8222V12.8445C18.796 12.5827 18.5838 12.3704 18.322 12.3704H13.3442C13.0824 12.3704 12.8702 12.5827 12.8702 12.8445V17.8222C12.8702 18.084 13.0824 18.2963 13.3442 18.2963H18.322C18.5838 18.2963 18.796 18.084 18.796 17.8222Z" stroke="white" stroke-width="2.96293"/>
<path d="M2.67768 18.2963H7.6554C7.91723 18.2963 8.12947 18.084 8.12947 17.8222V12.8445C8.12947 12.5827 7.91723 12.3704 7.6554 12.3704H2.67768C2.41586 12.3704 2.20361 12.5827 2.20361 12.8445V17.8222C2.20361 18.084 2.41586 18.2963 2.67768 18.2963Z" stroke="white" stroke-width="2.96293"/>
<path d="M8.12947 4.66679C8.12947 6.30317 6.80292 7.62972 5.16654 7.62972C3.53016 7.62972 2.20361 6.30317 2.20361 4.66679C2.20361 3.03041 3.53016 1.70386 5.16654 1.70386C6.80292 1.70386 8.12947 3.03041 8.12947 4.66679Z" stroke="white" stroke-width="2.96293"/>
</svg>
