<svg width="25" height="22" viewBox="0 0 25 22" fill="none" xmlns="http://www.w3.org/2000/svg">
<path d="M22.5471 18.6862L18.2177 19.6483C17.9254 19.7132 17.6482 19.4908 17.6482 19.1914V18.6047V3.88599C17.6482 3.66662 17.8005 3.47669 18.0147 3.4291L22.344 2.46702C22.6363 2.40207 22.9136 2.62449 22.9136 2.92392V18.1367V18.2293C22.9136 18.4487 22.7612 18.6386 22.5471 18.6862Z" fill="white"/>
<path d="M11.2712 15.153C11.2712 14.3452 10.6163 13.6903 9.80854 13.6903C9.00076 13.6903 8.34593 14.3452 8.34593 15.153H11.2712ZM8.34593 6.37727C8.34593 7.18505 9.00076 7.83989 9.80854 7.83989C10.6163 7.83989 11.2712 7.18505 11.2712 6.37727H8.34593ZM18.2177 19.6483L18.535 21.076L18.535 21.076L18.2177 19.6483ZM22.5471 18.6862L22.8644 20.114H22.8644L22.5471 18.6862ZM22.344 2.46702L22.0267 1.03924V1.03924L22.344 2.46702ZM18.0147 3.4291L18.332 4.85689V4.85689L18.0147 3.4291ZM2.08594 10.7066L1.04486 9.67929C0.482811 10.2489 0.482811 11.1644 1.04486 11.7339L2.08594 10.7066ZM6.53318 8.28217C7.10056 7.70719 7.0944 6.78114 6.51943 6.21376C5.94445 5.64639 5.0184 5.65254 4.45102 6.22752L6.53318 8.28217ZM4.45102 15.1857C5.0184 15.7607 5.94445 15.7668 6.51943 15.1995C7.0944 14.6321 7.10056 13.706 6.53318 13.1311L4.45102 15.1857ZM12.1943 12.1692C13.0021 12.1692 13.6569 11.5144 13.6569 10.7066C13.6569 9.89883 13.0021 9.244 12.1943 9.244V12.1692ZM22.4455 0.877839H10.2766V3.80307H22.4455V0.877839ZM8.34593 15.153V18.1367H11.2712V15.153H8.34593ZM8.34593 2.80849V6.37727H11.2712V2.80849H8.34593ZM24.3762 2.80849C24.3762 1.74222 23.5118 0.877839 22.4455 0.877839V3.80307C21.8962 3.80307 21.451 3.35778 21.451 2.80849H24.3762ZM10.2766 17.1421C10.8259 17.1421 11.2712 17.5874 11.2712 18.1367H8.34593C8.34593 19.203 9.21031 20.0673 10.2766 20.0673V17.1421ZM10.2766 0.877839C9.21031 0.877839 8.34593 1.74222 8.34593 2.80849H11.2712C11.2712 3.35778 10.8259 3.80307 10.2766 3.80307V0.877839ZM18.535 21.076L22.8644 20.114L22.2298 17.2584L17.9004 18.2205L18.535 21.076ZM22.0267 1.03924L17.6974 2.00131L18.332 4.85689L22.6613 3.89481L22.0267 1.03924ZM24.3762 2.92392C24.3762 1.68878 23.2324 0.771302 22.0267 1.03924L22.6613 3.89481C22.0402 4.03284 21.451 3.5602 21.451 2.92392H24.3762ZM22.8644 20.114C23.7477 19.9177 24.3762 19.1342 24.3762 18.2293H21.451C21.451 17.7631 21.7747 17.3595 22.2298 17.2584L22.8644 20.114ZM16.1855 19.1914C16.1855 20.4265 17.3293 21.344 18.535 21.076L17.9004 18.2205C18.5216 18.0824 19.1108 18.5551 19.1108 19.1914H16.1855ZM19.1108 3.88599C19.1108 4.35215 18.787 4.75576 18.332 4.85689L17.6974 2.00131C16.814 2.19761 16.1855 2.9811 16.1855 3.88599H19.1108ZM3.12702 11.7339L6.53318 8.28217L4.45102 6.22752L1.04486 9.67929L3.12702 11.7339ZM6.53318 13.1311L3.12702 9.67929L1.04486 11.7339L4.45102 15.1857L6.53318 13.1311ZM2.08594 12.1692H12.1943V9.244H2.08594V12.1692ZM24.3762 2.92392V2.80849H21.451V2.92392H24.3762ZM24.3762 18.2293V18.1367H21.451V18.2293H24.3762ZM24.3762 18.1367V2.92392H21.451V18.1367H24.3762ZM16.1855 3.88599V18.6047H19.1108V3.88599H16.1855ZM16.1855 18.6047V19.1914H19.1108V18.6047H16.1855ZM10.2766 20.0673H17.6482V17.1421H10.2766V20.0673Z" fill="white"/>
</svg>
