<svg width="25" height="20" viewBox="0 0 25 20" fill="none" xmlns="http://www.w3.org/2000/svg">
<path d="M16.9187 17.8851V17.8851C16.9187 13.8649 13.6596 10.6058 9.63935 10.6058H8.91744C5.03583 10.6058 1.88916 13.7525 1.88916 17.6341V17.6341C1.88916 17.7728 2.00154 17.8851 2.14017 17.8851H16.9187ZM16.9187 17.8851H22.687C22.9208 17.8851 23.1123 17.6949 23.0923 17.462C22.8778 14.962 20.7805 12.9997 18.225 12.9997H17.9089C17.5883 12.9997 17.1833 13.0164 16.9187 13.1223C16.6072 13.1828 16.3365 13.3339 16.0719 13.5685M19.7362 7.92392C19.7362 7.00198 18.9889 6.24257 18.0669 6.24257C17.145 6.24257 16.3976 7.00198 16.3976 7.92392C16.3976 8.84585 17.145 9.60527 18.0669 9.60527C18.9889 9.60527 19.7362 8.84585 19.7362 7.92392ZM11.8912 4.61996V4.61996C11.8912 5.99364 10.7776 7.12517 9.40391 7.12517V7.12517C8.03022 7.12517 6.91663 5.99364 6.91663 4.61996V4.61996C6.91663 3.24627 8.03022 2.11475 9.40391 2.11475V2.11475C10.7776 2.11475 11.8912 3.24627 11.8912 4.61996Z" stroke="white" stroke-width="2.64604"/>
</svg>
