<svg width="38" height="40" viewBox="0 0 38 40" fill="none" xmlns="http://www.w3.org/2000/svg">
<g clip-path="url(#clip0_8595_26622)">
<path d="M34.5156 36.5585H3.47578C3.17957 36.5585 2.93945 36.3185 2.93945 36.0223C2.93945 27.7286 9.66273 21.0054 17.9563 21.0054H20.0351C28.3287 21.0054 35.052 27.7286 35.052 36.0223C35.052 36.3185 34.8118 36.5585 34.5156 36.5585Z" stroke="white" stroke-width="5.65361"/>
<path d="M21.1758 34.7679H16.4062L18.7906 27.2729L21.1758 34.7679Z" stroke="white" stroke-width="3.87451"/>
<path d="M18.7906 26.0805L16.4058 23.6957H21.1754L18.7906 26.0805Z" stroke="white" stroke-width="3.87451"/>
<path d="M18.996 2.93994C21.931 2.93994 24.3104 5.31919 24.3104 8.25416C24.3104 11.1891 21.931 13.5683 18.996 13.5683C16.0611 13.5683 13.6816 11.1891 13.6816 8.25416C13.6816 5.31919 16.0611 2.93994 18.996 2.93994Z" stroke="white" stroke-width="5.65361"/>
</g>
<defs>
<clipPath id="clip0_8595_26622">
<rect width="38" height="39.574" fill="white"/>
</clipPath>
</defs>
</svg>
