<svg width="41" height="41" viewBox="0 0 41 41" fill="none" xmlns="http://www.w3.org/2000/svg">
<path d="M5.66025 33.7772H30.3669C32.3884 33.7772 34.0272 32.1384 34.0272 30.1169V5.41025C34.0272 3.38875 32.3884 1.75 30.3669 1.75H5.66025C3.63875 1.75 2 3.38875 2 5.41025V30.1169C2 32.1384 3.63875 33.7772 5.66025 33.7772Z" stroke="#9F9F9F" stroke-width="2.17143"/>
<path d="M5.7289 32.6791L5.68328 33.1757C5.49838 35.1888 6.98038 36.9705 8.9934 37.1554L33.5965 39.4152C35.6095 39.6001 37.3913 38.1181 37.5762 36.1051L39.836 11.502C40.0209 9.48895 38.5389 7.70718 36.5258 7.52229L35.1587 7.39672" stroke="#9F9F9F" stroke-width="2.17143" stroke-linecap="round" stroke-dasharray="3.66 3.66"/>
<path d="M17.4645 25.4043L11.0929 20.3368C10.2942 19.7016 9.13013 19.8424 8.50588 20.6498L2 29.0646V30.1169C2 32.1384 3.63875 33.7772 5.66025 33.7772H30.3669C32.3884 33.7772 34.0272 32.1384 34.0272 30.1169V23.2082L27.0054 15.178C26.2102 14.2686 24.7678 14.3654 24.1013 15.3728L17.4645 25.4043Z" fill="#9F9F9F"/>
<path d="M15.7717 12.4105C15.1147 11.7535 14.0495 11.7535 13.3925 12.4105C12.7355 13.0675 12.7355 14.1326 13.3925 14.7896C14.0495 15.4466 15.1147 15.4466 15.7717 14.7896C16.4287 14.1326 16.4287 13.0675 15.7717 12.4105Z" fill="#9F9F9F"/>
</svg>
