<svg width="40" height="40" viewBox="0 0 40 40" fill="none" xmlns="http://www.w3.org/2000/svg">
<path d="M5.83969 38.356H34.1603C36.4775 38.356 38.356 36.4775 38.356 34.1603V5.83969C38.356 3.5225 36.4775 1.64404 34.1603 1.64404H5.83969C3.5225 1.64404 1.64404 3.5225 1.64404 5.83969V34.1603C1.64404 36.4775 3.5225 38.356 5.83969 38.356Z" stroke="#9F9F9F" stroke-width="2.48905"/>
<path d="M19.3707 28.7582L12.067 22.9495C11.1514 22.2213 9.81712 22.3827 9.10157 23.3082L1.64404 32.9538V34.1601C1.64404 36.4773 3.5225 38.3557 5.83969 38.3557H34.1603C36.4775 38.3557 38.356 36.4773 38.356 34.1601V26.2408L30.3071 17.0359C29.3956 15.9936 27.7422 16.1046 26.9783 17.2593L19.3707 28.7582Z" fill="#9F9F9F"/>
<path d="M17.4302 13.8636C16.6771 13.1106 15.4561 13.1106 14.703 13.8636C13.9499 14.6167 13.9499 15.8377 14.703 16.5908C15.4561 17.3439 16.6771 17.3439 17.4302 16.5908C18.1833 15.8377 18.1833 14.6167 17.4302 13.8636Z" fill="#9F9F9F"/>
</svg>
