<svg width="38" height="52" viewBox="0 0 38 52" fill="none" xmlns="http://www.w3.org/2000/svg">
<path d="M12.3284 17.9987L5.29612 13.9527C4.72477 13.624 4.68558 12.8142 5.22251 12.4318L18.4749 2.99451C18.789 2.77087 19.2103 2.77087 19.5243 2.99451L32.7768 12.4318C33.3137 12.8142 33.2745 13.624 32.7031 13.9527L25.6709 17.9987C25.6709 17.9987 25.0795 17.7124 24.1385 17.3834M12.3284 17.9987L6.6353 21.0005C6.33747 21.1575 6.20855 21.5158 6.33806 21.8266C6.50581 22.2292 7.01437 22.3562 7.35164 22.0796L12.3284 17.9987ZM12.3284 17.9987L9.41227 24.7359C9.22106 25.1775 9.4672 25.6859 9.93224 25.8101C10.3724 25.9274 10.82 25.6482 10.9081 25.2013L12.3284 17.9987ZM12.3284 17.9987C12.3284 17.9987 12.9196 17.7124 13.8608 17.3834M24.1385 17.3834C22.8662 16.9386 20.9546 16.4157 18.9996 16.4157C17.0446 16.4157 15.133 16.9386 13.8608 17.3834M24.1385 17.3834L24.314 19.9592C24.314 22.8944 21.9347 25.3119 18.9996 25.3119C16.0646 25.3119 13.6852 22.8944 13.6852 19.9592L13.8608 17.3834M35.0559 47.7658C35.0559 39.4721 28.3326 32.7489 20.039 32.7489H17.9602C9.66664 32.7489 2.94336 39.4721 2.94336 47.7658C2.94336 48.062 3.18348 48.302 3.47968 48.302H34.5195C34.8157 48.302 35.0559 48.062 35.0559 47.7658Z" stroke="black" stroke-width="5.65361"/>
</svg>
